<svg id="svg" version="1.1" xmlns="http://www.w3.org/2000/svg" xmlns:xlink="http://www.w3.org/1999/xlink" width="400" height="400" viewBox="0, 0, 400,400"><g id="svgg"><path id="path0" d="M39.600 97.000 C 38.811 97.840,38.296 98.000,36.376 98.000 C 34.381 98.000,34.009 98.127,33.437 99.000 C 32.972 99.710,32.423 100.000,31.544 100.000 C 30.523 100.000,29.764 100.559,27.200 103.200 C 24.716 105.758,23.859 106.400,22.927 106.400 C 21.450 106.400,20.800 107.047,20.800 108.517 C 20.800 109.431,20.170 110.285,17.800 112.587 C 15.359 114.958,14.800 115.728,14.800 116.721 C 14.800 117.547,14.476 118.197,13.800 118.729 C 12.964 119.386,12.800 119.854,12.800 121.584 C 12.800 123.835,12.282 125.200,11.429 125.200 C 10.417 125.200,10.400 126.423,10.400 201.405 L 10.400 276.346 11.600 277.200 C 12.695 277.980,12.800 278.255,12.800 280.358 C 12.800 282.297,12.958 282.809,13.800 283.600 C 14.403 284.166,14.800 284.982,14.800 285.654 C 14.800 286.475,15.326 287.260,16.800 288.639 C 18.227 289.974,18.800 290.813,18.800 291.571 C 18.800 293.154,21.513 296.000,23.024 296.001 C 23.958 296.002,24.808 296.620,27.150 299.001 C 29.377 301.264,30.366 302.000,31.181 302.000 C 31.815 302.000,32.648 302.412,33.200 303.000 C 33.991 303.842,34.503 304.000,36.442 304.000 C 38.545 304.000,38.820 304.105,39.600 305.200 L 40.454 306.400 199.000 306.400 L 357.546 306.400 358.400 305.200 C 359.233 304.030,359.338 304.000,362.616 304.000 L 365.977 304.000 367.925 302.000 C 369.330 300.557,370.179 300.000,370.973 300.000 C 371.769 300.000,372.605 299.448,374.000 298.000 C 375.440 296.506,376.220 296.000,377.084 296.000 C 378.559 296.000,379.200 295.349,379.200 293.851 C 379.200 292.889,379.810 292.074,382.400 289.576 C 384.971 287.097,385.600 286.260,385.600 285.317 C 385.600 284.565,385.958 283.833,386.600 283.275 C 387.455 282.531,387.600 282.064,387.600 280.049 C 387.600 277.976,387.721 277.613,388.600 277.037 L 389.600 276.382 389.600 201.037 L 389.600 125.692 388.600 125.037 C 387.719 124.459,387.600 124.099,387.600 122.000 C 387.600 119.901,387.481 119.541,386.600 118.963 C 385.863 118.480,385.600 117.956,385.600 116.970 C 385.600 115.916,385.251 115.311,383.956 114.116 C 383.052 113.282,380.616 110.890,378.544 108.800 C 376.472 106.710,374.197 104.416,373.488 103.702 C 372.575 102.782,371.830 102.403,370.927 102.402 C 369.971 102.401,369.442 102.102,368.800 101.200 C 368.137 100.268,367.640 100.000,366.582 100.000 C 365.569 100.000,365.050 99.743,364.563 99.000 C 363.991 98.127,363.619 98.000,361.624 98.000 C 359.704 98.000,359.189 97.840,358.400 97.000 L 357.461 96.000 199.000 96.000 L 40.539 96.000 39.600 97.000 M58.685 189.685 C 60.515 190.347,61.055 193.347,59.356 193.414 C 59.160 193.422,58.576 193.664,58.057 193.951 C 57.539 194.239,56.332 194.412,55.376 194.335 C 54.273 194.248,53.777 194.337,54.019 194.579 C 54.715 195.275,54.503 211.416,53.790 212.008 C 53.455 212.286,53.071 212.405,52.938 212.271 C 52.804 212.138,52.319 212.292,51.858 212.614 C 50.833 213.332,47.206 213.388,46.281 212.700 C 45.692 212.262,45.595 211.101,45.504 203.400 L 45.400 194.600 42.533 194.377 C 38.491 194.062,36.742 191.607,39.289 189.823 C 40.439 189.017,56.522 188.903,58.685 189.685 M133.059 189.810 C 133.240 190.281,133.420 190.315,133.847 189.961 C 135.362 188.704,136.003 192.647,135.973 203.030 C 135.970 204.366,136.144 205.927,136.362 206.499 C 136.658 207.279,136.618 207.653,136.199 208.001 C 135.892 208.255,135.587 209.304,135.521 210.332 C 135.411 212.026,135.307 212.200,134.400 212.200 C 133.850 212.200,133.162 212.425,132.871 212.700 C 132.082 213.447,128.413 213.336,127.531 212.538 C 126.677 211.765,126.392 191.509,127.214 189.974 C 127.761 188.951,132.677 188.814,133.059 189.810 M222.946 189.803 C 223.342 190.200,223.638 190.261,223.810 189.984 C 224.894 188.230,225.200 190.654,225.194 200.949 C 225.188 211.277,225.047 212.571,223.957 212.347 C 223.651 212.284,222.971 212.469,222.447 212.759 C 221.436 213.317,218.934 213.114,217.523 212.359 C 216.795 211.969,216.755 211.538,216.873 205.371 C 216.992 199.235,216.845 197.864,216.238 199.445 C 216.071 199.879,215.704 200.016,215.116 199.862 C 214.635 199.736,214.018 199.819,213.745 200.046 C 213.472 200.272,212.746 200.400,212.132 200.329 C 209.770 200.056,209.838 195.928,212.207 195.671 C 212.863 195.599,213.760 195.203,214.200 194.790 C 215.767 193.317,216.618 192.419,217.961 190.820 C 219.459 189.037,221.719 188.576,222.946 189.803 M243.410 189.616 C 243.552 189.845,243.987 189.931,244.377 189.807 C 245.170 189.556,246.090 190.424,245.914 191.258 C 245.847 191.577,246.081 191.753,246.482 191.687 C 246.857 191.624,247.457 192.020,247.815 192.566 C 248.173 193.113,249.081 193.763,249.833 194.011 C 251.367 194.517,251.425 194.741,250.612 197.000 C 250.237 198.039,250.029 200.261,250.018 203.337 C 250.001 207.693,249.937 208.091,249.219 208.279 C 248.789 208.392,248.151 208.921,247.801 209.455 C 247.450 209.990,246.947 210.399,246.682 210.366 C 245.491 210.216,244.978 210.398,245.558 210.766 C 246.442 211.325,245.759 212.524,244.674 212.316 C 244.170 212.220,243.516 212.399,243.222 212.715 C 242.805 213.161,241.808 213.253,238.746 213.130 L 234.805 212.972 233.020 211.220 C 231.114 209.349,230.412 207.549,231.214 206.584 C 231.784 205.896,237.200 205.737,237.200 206.408 C 237.200 206.719,238.938 206.592,239.467 206.243 C 239.505 206.218,239.664 205.684,239.822 205.056 C 240.095 203.968,240.065 203.937,239.206 204.397 C 237.749 205.177,234.201 204.566,233.440 203.405 C 233.100 202.886,232.477 202.351,232.056 202.218 C 230.004 201.567,229.967 191.600,232.016 191.600 C 232.227 191.600,232.769 191.231,233.220 190.780 C 234.701 189.299,242.653 188.391,243.410 189.616 M267.443 191.719 C 268.629 192.994,269.600 193.917,269.600 193.770 C 269.600 193.622,269.870 193.726,270.200 194.000 C 271.107 194.753,271.042 199.532,270.120 199.886 C 269.746 200.030,268.513 201.104,267.380 202.274 C 266.247 203.443,265.126 204.400,264.888 204.400 C 264.650 204.400,264.398 204.805,264.328 205.300 C 264.244 205.890,263.924 206.201,263.400 206.202 C 262.869 206.203,262.599 206.471,262.598 207.002 C 262.595 207.800,265.725 208.351,270.341 208.365 C 272.525 208.372,273.075 209.138,271.722 210.288 C 270.945 210.949,270.857 211.119,271.438 210.840 C 272.481 210.340,274.157 208.168,275.629 205.409 L 276.753 203.303 275.776 202.454 C 275.239 201.987,274.800 201.344,274.800 201.025 C 274.800 200.706,274.478 200.210,274.084 199.923 C 272.364 198.668,271.555 196.964,272.342 196.253 C 273.137 195.533,278.564 195.295,278.976 195.962 C 279.099 196.161,279.883 196.232,280.717 196.120 C 282.666 195.859,283.755 196.847,282.430 197.674 C 281.581 198.204,281.325 198.800,281.947 198.800 C 282.138 198.800,282.779 198.066,283.373 197.169 L 284.452 195.539 287.526 195.760 C 293.268 196.173,293.600 196.294,293.600 197.975 C 293.600 199.851,292.578 200.304,291.788 198.776 L 291.126 197.496 290.286 198.336 C 289.790 198.832,289.437 199.713,289.423 200.488 C 289.406 201.432,289.160 201.906,288.542 202.177 C 286.988 202.859,286.896 206.400,288.434 206.400 C 288.904 206.400,289.372 206.801,289.600 207.400 C 289.809 207.950,290.259 208.400,290.599 208.400 C 290.939 208.400,291.421 208.847,291.669 209.392 C 291.918 209.938,292.464 210.493,292.883 210.626 C 293.988 210.977,293.606 212.195,292.383 212.221 C 291.831 212.232,291.174 212.369,290.923 212.524 C 288.481 214.033,283.977 213.076,283.212 210.884 C 282.889 209.958,282.366 209.200,282.050 209.200 C 281.583 209.200,281.600 209.337,282.138 209.931 C 282.867 210.737,283.038 212.400,282.391 212.400 C 282.167 212.400,281.778 211.950,281.527 211.400 C 280.950 210.134,279.876 210.119,279.060 211.364 C 277.853 213.207,273.392 213.706,271.367 212.226 C 270.733 211.762,270.555 211.779,270.126 212.342 C 269.779 212.798,269.622 212.839,269.613 212.477 C 269.603 212.076,269.394 212.099,268.711 212.577 C 266.424 214.179,250.237 213.176,250.948 211.477 C 251.058 211.214,251.375 210.303,251.652 209.452 C 252.250 207.613,257.084 202.538,258.811 201.936 C 259.447 201.715,260.074 201.197,260.204 200.787 C 260.334 200.377,260.783 199.933,261.200 199.800 C 262.999 199.229,262.886 194.000,261.075 194.000 C 260.839 194.000,260.955 194.225,261.332 194.501 C 262.126 195.081,262.336 197.471,261.693 198.619 C 261.298 199.326,261.239 199.292,260.976 198.194 C 260.513 196.265,258.400 194.886,258.400 196.514 C 258.400 197.919,254.176 198.951,252.374 197.986 C 250.823 197.156,251.596 193.072,253.670 191.134 C 255.582 189.348,256.148 189.206,260.943 189.308 L 265.285 189.400 267.443 191.719 M306.217 189.627 C 306.362 189.862,306.711 189.966,306.992 189.859 C 308.256 189.374,308.400 190.539,308.400 201.231 C 308.400 211.559,308.165 213.632,307.115 212.582 C 306.999 212.465,306.444 212.579,305.883 212.835 C 304.600 213.419,301.447 212.990,300.569 212.112 C 300.024 211.567,299.946 210.526,300.052 205.156 C 300.120 201.684,300.017 198.698,299.824 198.521 C 299.630 198.344,299.589 198.405,299.731 198.655 C 300.117 199.329,298.962 200.105,298.019 199.806 C 297.543 199.655,297.200 199.725,297.200 199.973 C 297.200 200.556,295.075 200.515,294.480 199.920 C 293.061 198.501,294.181 195.600,296.147 195.600 C 296.799 195.600,297.216 195.482,297.072 195.338 C 296.928 195.194,297.528 194.549,298.405 193.904 C 299.282 193.259,300.000 192.543,300.000 192.313 C 300.000 190.486,305.326 188.185,306.217 189.627 M326.946 189.803 C 327.342 190.200,327.638 190.261,327.810 189.984 C 328.181 189.384,329.200 190.302,329.200 191.236 C 329.200 191.711,329.403 191.897,329.770 191.756 C 330.104 191.628,330.615 191.957,331.003 192.548 C 331.367 193.105,332.298 193.768,333.072 194.024 C 334.386 194.457,334.459 194.570,334.192 195.744 C 334.035 196.435,333.793 199.430,333.653 202.400 C 333.417 207.447,333.343 207.825,332.526 208.184 C 332.045 208.395,331.459 208.991,331.223 209.508 C 330.984 210.033,330.486 210.418,330.097 210.379 C 328.600 210.227,328.140 210.374,328.800 210.795 C 329.627 211.322,328.871 212.486,327.578 212.675 C 320.913 213.650,318.510 213.289,316.184 210.962 C 315.203 209.982,314.400 208.824,314.400 208.389 C 314.400 207.955,314.222 207.600,314.004 207.600 C 313.786 207.600,313.916 207.240,314.293 206.800 C 315.028 205.942,320.100 205.591,320.578 206.365 C 321.067 207.156,322.997 206.176,323.127 205.070 C 323.246 204.056,323.195 204.019,322.258 204.446 C 320.877 205.076,317.704 204.556,317.109 203.603 C 316.692 202.935,316.598 202.924,316.183 203.491 C 315.929 203.838,315.514 203.994,315.261 203.838 C 314.568 203.410,314.707 202.802,315.500 202.788 C 316.151 202.777,316.149 202.746,315.474 202.354 C 315.075 202.122,314.592 201.542,314.400 201.066 C 314.123 200.380,314.045 200.345,314.025 200.900 C 313.990 201.877,313.200 201.782,313.200 200.800 C 313.200 200.360,313.380 200.000,313.600 200.000 C 314.088 200.000,314.118 198.405,313.644 197.657 C 312.578 195.976,315.642 190.707,318.371 189.528 C 319.692 188.957,326.312 189.170,326.946 189.803 M349.940 190.866 C 351.066 191.782,352.079 192.819,352.190 193.169 C 352.302 193.520,352.799 193.986,353.296 194.204 C 354.787 194.857,354.638 199.179,353.100 199.916 C 352.495 200.206,352.000 200.709,352.000 201.034 C 352.000 201.359,351.689 201.744,351.309 201.890 C 350.928 202.036,350.192 202.661,349.673 203.278 C 349.154 203.895,348.481 204.400,348.177 204.400 C 347.873 204.400,347.718 204.641,347.831 204.936 C 348.074 205.570,347.108 206.477,346.361 206.314 C 346.070 206.251,345.829 206.556,345.819 207.000 C 345.802 207.713,346.150 207.830,349.000 208.077 C 353.305 208.449,353.329 208.453,353.900 208.904 C 354.595 209.452,354.526 211.397,353.790 212.008 C 353.455 212.286,353.071 212.405,352.938 212.271 C 352.804 212.138,352.319 212.292,351.858 212.614 C 349.127 214.528,332.758 212.978,334.430 210.964 C 334.683 210.660,334.781 210.129,334.649 209.784 C 334.511 209.424,334.577 209.262,334.805 209.403 C 335.022 209.537,335.200 209.349,335.200 208.985 C 335.200 208.161,340.189 202.935,341.749 202.125 C 345.516 200.170,347.680 193.839,344.510 194.046 C 343.859 194.089,343.857 194.108,344.487 194.273 C 345.333 194.495,345.745 196.562,345.271 198.200 L 344.923 199.400 344.160 197.800 C 343.368 196.140,341.600 195.285,341.600 196.562 C 341.600 197.436,339.527 198.400,337.648 198.400 C 335.603 198.400,334.640 197.498,334.963 195.885 C 335.093 195.233,335.200 194.363,335.200 193.951 C 335.200 191.202,338.758 189.257,343.846 189.225 L 347.892 189.200 349.940 190.866 M109.920 190.480 C 110.184 190.744,110.400 191.896,110.400 193.041 C 110.400 195.079,111.683 196.389,113.342 196.043 C 114.033 195.899,114.800 196.928,114.800 198.000 C 114.800 199.072,114.033 200.101,113.342 199.957 C 113.154 199.918,112.415 200.109,111.700 200.382 L 110.400 200.878 110.400 204.260 L 110.400 207.642 111.700 208.108 C 112.415 208.364,113.154 208.529,113.342 208.473 C 114.013 208.275,114.800 209.316,114.800 210.400 C 114.800 211.483,114.014 212.524,113.342 212.329 C 113.154 212.275,112.563 212.472,112.029 212.767 C 111.343 213.146,110.235 213.235,108.257 213.069 C 104.087 212.720,103.876 212.405,103.670 206.218 L 103.504 201.222 102.152 200.191 C 100.289 198.770,100.298 197.223,102.178 195.790 C 103.236 194.983,103.584 194.398,103.678 193.270 C 103.791 191.908,103.917 191.776,105.400 191.468 C 106.280 191.285,107.450 190.897,108.000 190.604 C 109.295 189.916,109.353 189.913,109.920 190.480 M126.400 201.033 C 126.400 209.682,126.292 212.031,125.900 211.900 C 124.740 211.514,125.083 190.000,126.249 190.000 C 126.332 190.000,126.400 194.965,126.400 201.033 M230.592 193.625 C 230.333 194.440,230.266 194.462,229.919 193.841 C 229.707 193.462,229.644 192.862,229.780 192.509 C 230.169 191.495,230.934 192.547,230.592 193.625 M314.000 193.000 C 314.000 194.021,313.454 194.335,312.988 193.581 C 312.655 193.042,313.051 192.000,313.587 192.000 C 313.814 192.000,314.000 192.450,314.000 193.000 M240.500 194.432 C 240.885 194.656,241.214 195.146,241.232 195.520 C 241.252 195.958,241.337 196.017,241.469 195.687 C 241.709 195.091,240.911 193.994,240.251 194.012 C 240.003 194.019,240.115 194.208,240.500 194.432 M323.700 194.276 C 324.394 194.457,324.642 195.087,324.930 197.400 C 325.059 198.429,325.089 198.383,325.140 197.074 C 325.213 195.228,324.615 193.984,323.686 194.046 C 323.053 194.089,323.054 194.107,323.700 194.276 M45.098 207.500 C 45.028 209.865,44.970 207.930,44.970 203.200 C 44.970 198.470,45.028 196.535,45.098 198.900 C 45.169 201.265,45.169 205.135,45.098 207.500 M75.644 196.100 C 76.965 196.893,79.200 199.016,79.200 199.478 C 79.200 199.710,79.695 200.001,80.300 200.126 C 81.148 200.299,81.571 200.772,82.143 202.185 C 82.552 203.193,83.272 204.224,83.743 204.474 C 84.215 204.725,84.825 205.216,85.101 205.565 C 85.558 206.144,85.583 206.144,85.382 205.561 C 85.260 205.209,84.630 204.529,83.981 204.049 C 82.346 202.840,82.248 199.436,83.800 197.762 C 84.350 197.169,84.800 196.840,84.800 197.031 C 84.800 197.222,85.080 196.978,85.423 196.489 C 86.094 195.531,95.234 195.084,95.789 195.983 C 95.919 196.193,96.276 196.269,96.583 196.151 C 96.900 196.030,97.421 196.365,97.789 196.927 C 98.145 197.471,98.789 198.008,99.219 198.121 C 100.455 198.444,100.422 209.964,99.184 210.288 C 98.735 210.406,98.094 211.032,97.759 211.679 C 97.326 212.517,97.013 212.743,96.674 212.461 C 96.353 212.195,95.946 212.250,95.422 212.633 C 93.751 213.855,86.365 213.402,84.555 211.966 C 81.771 209.757,81.515 209.366,82.529 208.875 C 83.226 208.538,83.262 208.449,82.709 208.427 C 82.329 208.412,81.715 208.863,81.344 209.430 C 80.923 210.072,80.410 210.391,79.979 210.279 C 79.599 210.179,79.044 210.253,78.744 210.443 C 78.345 210.696,78.333 210.789,78.700 210.794 C 79.352 210.802,79.344 211.783,78.687 212.328 C 78.374 212.587,77.949 212.615,77.600 212.400 C 77.243 212.179,76.810 212.226,76.452 212.523 C 76.084 212.829,74.289 213.000,71.439 213.000 L 67.000 213.000 65.000 211.467 C 61.076 208.459,60.631 199.389,64.324 197.682 C 65.136 197.307,66.035 196.685,66.323 196.300 C 66.975 195.426,74.261 195.270,75.644 196.100 M150.461 196.100 C 151.823 196.816,154.400 199.242,154.400 199.809 C 154.400 200.612,156.205 200.010,156.619 199.069 C 156.828 198.591,157.180 198.255,157.400 198.322 C 157.993 198.502,157.742 200.315,157.024 201.033 C 156.299 201.759,156.185 202.938,156.862 202.713 C 157.116 202.628,157.616 201.668,157.972 200.579 C 159.065 197.241,161.035 195.600,163.950 195.600 C 165.271 195.600,166.472 195.792,166.617 196.027 C 166.762 196.262,167.127 196.360,167.428 196.245 C 167.728 196.129,168.080 196.206,168.210 196.416 C 168.350 196.643,168.914 196.555,169.603 196.199 C 170.913 195.521,174.622 195.389,175.004 196.007 C 175.142 196.230,175.431 196.305,175.645 196.172 C 176.383 195.716,177.200 196.897,177.200 198.420 C 177.200 199.295,177.478 200.221,177.853 200.596 C 178.383 201.126,178.421 201.436,178.053 202.243 C 177.474 203.515,177.477 204.893,178.063 206.180 C 178.444 207.014,178.408 207.328,177.863 207.930 C 177.386 208.458,177.200 209.406,177.200 211.317 C 177.200 213.871,176.354 215.421,175.453 214.519 C 175.314 214.380,175.200 214.538,175.200 214.869 C 175.200 215.535,172.750 217.918,171.261 218.700 C 170.655 219.018,168.591 219.200,165.594 219.200 L 160.880 219.200 159.440 217.760 C 156.557 214.877,157.774 213.819,163.651 214.098 C 168.278 214.317,168.832 214.135,168.753 212.420 C 168.708 211.449,168.693 211.455,168.453 212.567 C 168.147 213.977,167.200 214.449,167.200 213.191 C 167.200 212.494,167.056 212.384,166.500 212.652 C 163.201 214.241,159.000 211.767,158.013 207.654 C 157.710 206.393,157.304 205.600,156.959 205.600 C 156.521 205.600,156.573 205.926,157.199 207.094 C 158.496 209.514,157.953 211.521,156.572 209.413 C 155.572 207.886,152.836 209.244,151.878 211.742 C 151.232 213.424,142.920 213.802,141.450 212.216 C 140.949 211.676,140.067 211.054,139.490 210.834 C 135.668 209.381,135.934 198.747,139.824 197.462 C 140.471 197.248,141.235 196.742,141.523 196.337 C 142.164 195.433,148.853 195.256,150.461 196.100 M192.206 196.169 C 192.809 196.482,194.090 197.571,195.051 198.589 C 196.013 199.608,196.800 200.319,196.800 200.171 C 196.800 200.023,197.039 200.100,197.331 200.343 C 198.210 201.072,197.967 207.614,197.041 208.169 C 196.039 208.769,193.732 211.079,193.481 211.733 C 192.772 213.582,184.332 213.707,182.652 211.894 C 182.094 211.292,181.388 210.800,181.081 210.800 C 177.379 210.800,177.779 198.345,181.512 197.408 C 182.091 197.262,182.807 196.796,183.105 196.372 C 183.797 195.383,190.407 195.236,192.206 196.169 M159.715 197.245 C 159.040 197.920,158.237 197.278,158.844 196.547 C 159.178 196.144,159.454 196.094,159.743 196.383 C 160.032 196.672,160.024 196.936,159.715 197.245 M210.000 197.957 C 210.000 199.709,209.690 200.173,208.937 199.548 C 208.278 199.000,208.233 197.127,208.864 196.496 C 209.586 195.774,210.000 196.306,210.000 197.957 M241.116 198.676 C 240.989 199.164,240.485 199.609,239.946 199.712 C 239.091 199.874,239.082 199.896,239.851 199.946 C 240.814 200.007,241.760 199.081,241.508 198.324 C 241.414 198.043,241.241 198.198,241.116 198.676 M91.557 199.095 C 92.016 199.977,93.802 200.732,94.285 200.248 C 94.422 200.112,94.200 200.000,93.792 200.000 C 93.385 200.000,92.611 199.595,92.071 199.100 L 91.091 198.200 91.557 199.095 M324.173 199.168 C 323.968 199.363,323.440 199.609,323.000 199.715 L 322.200 199.907 323.000 199.947 C 323.891 199.992,325.097 199.363,324.762 199.028 C 324.643 198.910,324.379 198.973,324.173 199.168 M230.546 201.287 C 230.202 201.843,229.621 201.210,229.873 200.554 C 230.059 200.069,230.181 200.046,230.429 200.447 C 230.604 200.730,230.657 201.108,230.546 201.287 M147.610 201.426 C 148.481 203.718,147.884 207.737,146.615 208.126 C 146.133 208.273,146.151 208.303,146.691 208.254 C 148.350 208.103,149.234 204.337,148.195 201.849 C 147.510 200.210,147.010 199.849,147.610 201.426 M167.464 201.428 C 168.646 202.609,168.720 206.899,167.572 207.626 C 167.158 207.888,167.141 207.989,167.510 207.994 C 168.972 208.011,169.207 201.980,167.786 200.940 C 166.559 200.043,166.369 200.333,167.464 201.428 M189.414 201.772 C 190.434 204.214,189.846 207.361,188.250 208.006 C 187.579 208.277,187.546 208.355,188.091 208.375 C 190.205 208.452,191.140 201.799,189.185 200.591 C 188.989 200.470,189.092 201.001,189.414 201.772 M232.800 203.433 C 232.800 203.782,232.586 203.995,232.325 203.908 C 231.583 203.661,231.460 202.800,232.167 202.800 C 232.515 202.800,232.800 203.085,232.800 203.433 M324.628 205.500 C 324.468 206.214,323.951 207.069,323.479 207.400 C 322.738 207.919,322.718 208.000,323.331 208.000 C 324.074 208.000,325.377 205.514,325.081 204.663 C 324.992 204.408,324.789 204.785,324.628 205.500 M241.200 205.725 C 241.200 206.013,240.833 206.643,240.384 207.125 C 239.586 207.981,239.737 208.282,240.668 207.690 C 241.172 207.370,241.847 205.200,241.443 205.200 C 241.310 205.200,241.200 205.436,241.200 205.725 M92.013 208.046 C 92.287 209.001,92.255 209.445,91.895 209.673 C 91.320 210.038,91.675 210.100,92.508 209.780 C 93.190 209.518,92.975 207.843,92.174 207.178 C 91.731 206.811,91.703 206.964,92.013 208.046 M159.800 211.200 C 160.231 211.897,159.592 212.492,158.969 211.974 C 158.661 211.718,158.507 211.350,158.628 211.155 C 158.920 210.683,159.494 210.705,159.800 211.200 " stroke="none" fill="#b4e41c" fill-rule="evenodd"></path><path id="path1" d="M130.800 189.866 C 130.250 189.953,129.395 190.112,128.900 190.220 L 128.000 190.415 128.000 201.189 L 128.000 211.964 129.337 212.215 C 130.072 212.352,131.197 212.406,131.837 212.333 L 133.000 212.200 133.107 201.449 C 133.208 191.187,133.052 189.437,132.051 189.654 C 131.913 189.684,131.350 189.780,130.800 189.866 M40.087 190.473 C 38.480 192.080,39.896 193.600,43.000 193.600 C 46.505 193.600,46.400 193.311,46.400 203.000 C 46.400 212.556,46.350 212.400,49.400 212.400 C 52.452 212.400,52.400 212.565,52.400 202.910 L 52.400 194.380 53.426 193.990 C 53.990 193.776,55.295 193.597,56.326 193.594 C 58.789 193.586,59.289 193.223,59.130 191.558 L 59.000 190.200 49.787 190.093 C 42.958 190.013,40.448 190.112,40.087 190.473 M108.721 190.868 C 108.338 191.445,107.571 191.804,106.376 191.963 C 104.622 192.197,104.599 192.221,104.479 193.868 C 104.388 195.117,104.111 195.697,103.379 196.177 C 102.052 197.046,102.041 198.946,103.357 199.809 C 104.257 200.398,104.324 200.709,104.458 204.918 C 104.650 210.907,105.622 212.400,109.326 212.400 C 113.467 212.400,114.920 210.014,111.700 208.502 L 110.200 207.797 110.080 205.007 C 109.917 201.225,110.154 200.514,111.807 199.823 C 113.808 198.987,113.831 197.023,111.849 196.194 C 110.259 195.531,110.000 194.997,110.000 192.391 C 110.000 190.167,109.546 189.626,108.721 190.868 M219.168 190.900 C 218.533 192.142,214.440 195.877,213.100 196.437 C 212.270 196.784,212.000 197.173,212.000 198.022 C 212.000 199.671,213.354 199.983,214.613 198.624 C 215.382 197.794,215.808 197.634,216.690 197.845 C 218.765 198.341,218.800 198.463,218.800 205.169 C 218.800 211.957,218.929 212.400,220.906 212.400 C 223.671 212.400,223.600 212.692,223.600 201.266 C 223.600 193.784,223.468 190.828,223.120 190.480 C 222.252 189.612,219.687 189.885,219.168 190.900 M234.052 191.910 C 231.257 194.385,230.408 200.045,232.629 201.400 C 232.989 201.620,233.920 202.295,234.697 202.900 C 236.418 204.240,238.144 204.319,240.661 203.172 C 243.782 201.750,244.433 202.890,242.500 206.394 C 241.156 208.831,238.695 209.320,237.437 207.400 C 236.751 206.354,235.685 206.163,233.250 206.650 C 231.539 206.992,231.665 207.510,234.100 210.139 L 236.200 212.406 239.611 212.403 C 242.800 212.400,243.093 212.328,244.108 211.300 C 244.706 210.695,245.720 209.680,246.362 209.045 C 249.190 206.247,249.015 195.469,246.096 192.650 C 243.195 189.848,243.559 190.000,239.758 190.004 L 236.200 190.009 234.052 191.910 M255.774 191.116 C 253.952 192.727,252.830 194.533,252.708 196.050 L 252.600 197.400 254.934 197.521 C 257.581 197.658,258.400 197.212,258.400 195.631 C 258.400 192.522,263.010 192.886,263.801 196.057 C 264.211 197.697,261.059 202.400,259.550 202.400 C 259.389 202.400,259.019 202.649,258.729 202.952 C 258.438 203.256,256.982 204.767,255.493 206.309 C 253.201 208.683,252.772 209.349,252.693 210.656 L 252.600 212.200 260.000 212.314 C 269.033 212.452,269.200 212.422,269.200 210.606 C 269.200 208.766,268.407 208.400,264.414 208.400 C 260.921 208.400,259.779 207.695,261.435 206.561 C 261.856 206.272,262.479 205.765,262.820 205.433 C 263.161 205.101,264.001 204.593,264.686 204.305 C 267.075 203.300,268.885 199.903,268.944 196.316 L 268.994 193.231 267.312 191.616 L 265.631 190.000 261.315 190.016 C 257.203 190.032,256.942 190.083,255.774 191.116 M302.424 190.936 C 302.046 191.931,297.477 196.099,296.300 196.523 C 295.330 196.872,295.359 199.043,296.342 199.569 C 296.938 199.888,297.184 199.777,297.598 199.004 C 298.249 197.788,298.738 197.607,300.435 197.953 L 301.800 198.232 301.910 204.787 C 302.032 212.025,302.153 212.400,304.369 212.400 C 306.817 212.400,306.800 212.479,306.800 200.963 C 306.800 189.380,306.949 190.000,304.157 190.000 C 303.081 190.000,302.702 190.205,302.424 190.936 M318.600 190.793 C 318.160 191.224,317.125 192.194,316.300 192.948 C 311.214 197.599,317.863 206.352,324.038 203.134 C 326.994 201.593,327.717 203.059,325.742 206.592 C 324.474 208.861,322.153 209.211,320.693 207.355 C 319.960 206.423,319.661 206.331,317.912 206.499 C 314.443 206.832,314.464 207.140,318.200 210.816 C 320.278 212.860,325.822 213.254,327.009 211.442 C 327.355 210.915,327.972 210.396,328.382 210.289 C 332.655 209.171,332.881 195.950,328.695 191.936 L 326.675 190.000 323.038 190.004 C 319.967 190.008,319.275 190.130,318.600 190.793 M338.100 192.268 C 336.313 194.187,336.000 194.754,336.000 196.080 L 336.000 197.637 338.700 197.518 L 341.400 197.400 341.533 196.002 C 341.842 192.744,345.952 192.489,347.020 195.661 C 347.630 197.470,344.651 202.400,342.948 202.400 C 342.236 202.400,336.077 209.286,335.883 210.299 C 335.483 212.391,335.515 212.400,343.669 212.400 C 351.981 212.400,352.800 212.221,352.800 210.400 C 352.800 208.794,351.870 208.400,348.075 208.400 C 343.980 208.400,343.411 207.870,345.507 206.008 C 346.328 205.279,347.561 204.446,348.248 204.157 C 351.521 202.781,353.952 193.709,351.439 192.244 C 351.021 192.000,350.313 191.395,349.867 190.900 C 349.118 190.069,348.717 190.000,344.628 190.006 L 340.200 190.013 338.100 192.268 M242.624 194.996 C 243.854 196.609,243.756 197.683,242.229 199.331 C 238.974 202.843,234.765 197.963,237.716 194.100 C 238.580 192.969,241.482 193.499,242.624 194.996 M325.480 194.500 C 327.213 196.403,327.281 196.968,325.987 198.754 C 324.039 201.443,321.433 201.058,320.077 197.881 C 318.760 194.793,323.210 192.008,325.480 194.500 M67.080 196.933 C 66.718 197.487,66.070 198.051,65.640 198.187 C 61.980 199.349,61.901 206.664,65.511 210.188 L 67.776 212.400 72.074 212.400 C 75.955 212.400,76.413 212.323,76.798 211.604 C 77.032 211.166,77.779 210.521,78.458 210.170 C 80.333 209.200,79.441 208.888,74.360 208.737 C 69.124 208.580,67.829 208.094,69.052 206.743 C 69.631 206.103,70.348 206.000,74.229 206.000 C 79.569 206.000,80.000 205.879,80.000 204.377 C 80.000 203.354,78.967 198.761,78.706 198.623 C 78.648 198.592,77.790 198.036,76.800 197.388 C 74.157 195.656,68.103 195.373,67.080 196.933 M87.230 196.288 C 81.499 198.551,83.355 205.589,89.774 205.934 C 93.030 206.109,94.000 206.717,94.000 208.582 C 94.000 211.011,91.382 211.644,88.964 209.800 C 88.014 209.075,87.157 208.800,85.850 208.800 C 83.505 208.800,83.388 209.102,85.041 210.905 L 86.411 212.400 90.733 212.400 L 95.055 212.400 96.452 211.100 C 98.905 208.817,99.368 206.681,97.992 203.984 L 97.184 202.400 94.369 202.400 C 91.593 202.400,91.528 202.376,89.701 200.650 L 87.848 198.899 89.135 198.234 C 90.609 197.471,93.003 197.718,93.545 198.688 C 93.975 199.456,97.004 200.036,97.579 199.461 C 97.878 199.162,97.564 198.588,96.520 197.518 L 95.038 196.000 91.419 196.032 C 89.428 196.049,87.544 196.164,87.230 196.288 M141.944 196.963 C 141.684 197.533,141.311 198.000,141.115 198.000 C 140.919 198.000,140.139 198.675,139.382 199.500 C 136.748 202.368,138.035 210.400,141.129 210.400 C 141.317 210.400,141.677 210.850,141.927 211.400 C 142.714 213.126,149.061 212.905,151.805 211.056 C 155.896 208.299,156.145 199.838,152.200 197.662 C 151.540 197.298,150.872 196.820,150.715 196.600 C 149.969 195.553,142.445 195.864,141.944 196.963 M161.443 197.646 C 159.097 199.711,158.399 201.049,158.402 203.480 C 158.409 209.703,163.606 214.511,166.962 211.400 C 169.167 209.357,170.937 210.471,169.693 213.118 L 168.996 214.600 164.198 214.800 C 158.972 215.018,158.949 215.033,160.370 217.331 L 161.316 218.863 166.188 218.731 C 170.203 218.623,171.184 218.475,171.768 217.891 C 172.157 217.501,172.975 216.923,173.584 216.608 C 175.081 215.834,175.200 214.993,175.200 205.230 C 175.200 196.201,175.151 196.000,172.932 196.000 C 171.950 196.000,171.408 196.292,170.760 197.168 C 169.819 198.441,169.023 198.349,166.846 196.716 C 165.231 195.504,163.547 195.793,161.443 197.646 M183.798 196.947 C 183.430 197.509,182.805 198.071,182.410 198.197 C 178.530 199.428,178.658 208.236,182.586 210.294 C 183.113 210.571,183.660 211.157,183.799 211.598 C 184.291 213.148,190.871 212.764,193.436 211.036 C 197.674 208.182,197.881 199.718,193.765 197.601 C 193.124 197.271,192.472 196.821,192.315 196.601 C 191.585 195.575,184.508 195.863,183.798 196.947 M273.618 196.578 C 273.234 197.041,273.309 197.299,273.998 197.878 C 274.471 198.275,275.118 199.216,275.437 199.968 C 275.755 200.720,276.392 201.599,276.851 201.921 C 277.943 202.686,277.606 205.202,276.186 206.890 C 275.644 207.534,275.200 208.214,275.200 208.400 C 275.200 208.586,274.732 209.295,274.159 209.975 C 272.638 211.784,273.090 212.400,275.938 212.400 C 278.467 212.400,278.959 212.101,279.414 210.287 C 280.025 207.853,282.812 207.671,283.993 209.987 C 285.015 211.989,285.797 212.400,288.586 212.400 C 291.871 212.400,291.922 211.786,288.897 208.642 C 285.093 204.686,285.186 203.343,289.589 198.685 C 291.698 196.454,291.465 196.008,288.200 196.019 C 286.031 196.027,285.209 196.513,283.664 198.700 C 282.519 200.320,282.050 200.327,280.796 198.742 C 278.729 196.132,278.511 196.000,276.249 196.000 C 274.862 196.000,273.928 196.205,273.618 196.578 M73.300 200.021 C 76.009 200.773,74.789 202.405,71.526 202.394 C 67.919 202.381,67.809 199.980,71.400 199.642 C 71.620 199.621,72.475 199.792,73.300 200.021 M148.033 200.000 C 149.929 200.000,150.845 205.667,149.264 207.620 C 147.314 210.028,143.679 208.521,143.332 205.160 C 142.942 201.381,144.517 199.184,147.133 199.862 C 147.426 199.938,147.831 200.000,148.033 200.000 M190.700 200.651 C 191.977 201.456,192.049 206.670,190.799 207.801 C 188.603 209.789,185.439 208.468,184.975 205.371 C 184.286 200.777,187.153 198.414,190.700 200.651 M169.254 201.400 C 169.533 202.170,169.905 202.800,170.080 202.800 C 170.515 202.800,170.489 205.498,170.052 205.768 C 169.860 205.886,169.598 206.512,169.468 207.159 C 169.209 208.454,168.646 208.683,166.276 208.457 C 162.260 208.074,162.935 200.000,166.983 200.000 C 168.637 200.000,168.780 200.088,169.254 201.400 " stroke="none" fill="#0d1526" fill-rule="evenodd"></path><path id="path2" d="M0.000 200.000 L 0.000 400.000 200.000 400.000 L 400.000 400.000 400.000 200.000 L 400.000 0.000 200.000 0.000 L 0.000 0.000 0.000 200.000 M358.400 97.000 C 359.189 97.840,359.704 98.000,361.624 98.000 C 363.619 98.000,363.991 98.127,364.563 99.000 C 365.050 99.743,365.569 100.000,366.582 100.000 C 367.640 100.000,368.137 100.268,368.800 101.200 C 369.442 102.102,369.971 102.401,370.927 102.402 C 371.830 102.403,372.575 102.782,373.488 103.702 C 374.197 104.416,376.472 106.710,378.544 108.800 C 380.616 110.890,383.052 113.282,383.956 114.116 C 385.251 115.311,385.600 115.916,385.600 116.970 C 385.600 117.956,385.863 118.480,386.600 118.963 C 387.481 119.541,387.600 119.901,387.600 122.000 C 387.600 124.099,387.719 124.459,388.600 125.037 L 389.600 125.692 389.600 201.037 L 389.600 276.382 388.600 277.037 C 387.721 277.613,387.600 277.976,387.600 280.049 C 387.600 282.064,387.455 282.531,386.600 283.275 C 385.958 283.833,385.600 284.565,385.600 285.317 C 385.600 286.260,384.971 287.097,382.400 289.576 C 379.810 292.074,379.200 292.889,379.200 293.851 C 379.200 295.349,378.559 296.000,377.084 296.000 C 376.220 296.000,375.440 296.506,374.000 298.000 C 372.605 299.448,371.769 300.000,370.973 300.000 C 370.179 300.000,369.330 300.557,367.925 302.000 L 365.977 304.000 362.616 304.000 C 359.338 304.000,359.233 304.030,358.400 305.200 L 357.546 306.400 199.000 306.400 L 40.454 306.400 39.600 305.200 C 38.820 304.105,38.545 304.000,36.442 304.000 C 34.503 304.000,33.991 303.842,33.200 303.000 C 32.648 302.412,31.815 302.000,31.181 302.000 C 30.366 302.000,29.377 301.264,27.150 299.001 C 24.808 296.620,23.958 296.002,23.024 296.001 C 21.513 296.000,18.800 293.154,18.800 291.571 C 18.800 290.813,18.227 289.974,16.800 288.639 C 15.326 287.260,14.800 286.475,14.800 285.654 C 14.800 284.982,14.403 284.166,13.800 283.600 C 12.958 282.809,12.800 282.297,12.800 280.358 C 12.800 278.255,12.695 277.980,11.600 277.200 L 10.400 276.346 10.400 201.405 C 10.400 126.423,10.417 125.200,11.429 125.200 C 12.282 125.200,12.800 123.835,12.800 121.584 C 12.800 119.854,12.964 119.386,13.800 118.729 C 14.476 118.197,14.800 117.547,14.800 116.721 C 14.800 115.728,15.359 114.958,17.800 112.587 C 20.170 110.285,20.800 109.431,20.800 108.517 C 20.800 107.047,21.450 106.400,22.927 106.400 C 23.859 106.400,24.716 105.758,27.200 103.200 C 29.764 100.559,30.523 100.000,31.544 100.000 C 32.423 100.000,32.972 99.710,33.437 99.000 C 34.009 98.127,34.381 98.000,36.376 98.000 C 38.296 98.000,38.811 97.840,39.600 97.000 L 40.539 96.000 199.000 96.000 L 357.461 96.000 358.400 97.000 M125.642 190.549 C 124.966 191.364,125.211 211.671,125.900 211.900 C 126.292 212.031,126.400 209.682,126.400 201.033 C 126.400 194.965,126.332 190.000,126.249 190.000 C 126.166 190.000,125.893 190.247,125.642 190.549 M229.780 192.509 C 229.644 192.862,229.707 193.462,229.919 193.841 C 230.266 194.462,230.333 194.440,230.592 193.625 C 230.934 192.547,230.169 191.495,229.780 192.509 M312.952 192.581 C 312.829 192.900,312.846 193.350,312.988 193.581 C 313.454 194.335,314.000 194.021,314.000 193.000 C 314.000 191.916,313.313 191.641,312.952 192.581 M249.267 194.350 C 248.850 194.614,248.956 194.927,249.750 195.783 L 250.765 196.879 251.037 195.797 C 251.390 194.389,250.436 193.609,249.267 194.350 M332.584 194.425 C 332.440 194.659,332.609 195.168,332.961 195.557 C 333.312 195.945,333.603 196.519,333.606 196.831 C 333.611 197.302,333.679 197.296,334.000 196.800 C 334.596 195.878,334.472 194.513,333.767 194.243 C 332.933 193.923,332.891 193.929,332.584 194.425 M239.342 194.677 C 238.437 194.854,238.088 196.030,238.327 198.100 C 238.533 199.894,241.065 199.726,241.408 197.896 C 241.657 196.573,241.077 194.355,240.510 194.454 C 240.339 194.484,239.814 194.584,239.342 194.677 M260.900 194.683 C 260.286 194.908,260.271 195.720,260.843 197.778 C 261.229 199.170,261.330 199.267,261.702 198.603 C 262.576 197.042,262.010 194.276,260.900 194.683 M322.800 194.782 C 321.902 195.010,321.800 195.238,321.800 197.018 L 321.800 199.000 323.200 199.000 C 324.579 199.000,324.602 198.973,324.719 197.165 C 324.855 195.069,324.314 194.396,322.800 194.782 M344.100 194.679 C 343.416 194.936,343.473 196.136,344.253 197.913 C 344.897 199.378,344.911 199.386,345.213 198.400 C 345.877 196.239,345.278 194.238,344.100 194.679 M44.970 203.200 C 44.970 207.930,45.028 209.865,45.098 207.500 C 45.169 205.135,45.169 201.265,45.098 198.900 C 45.028 196.535,44.970 198.470,44.970 203.200 M158.844 196.547 C 158.487 196.977,158.480 197.202,158.815 197.410 C 159.468 197.813,160.277 196.917,159.743 196.383 C 159.454 196.094,159.178 196.144,158.844 196.547 M208.864 196.496 C 208.233 197.127,208.278 199.000,208.937 199.548 C 209.690 200.173,210.000 199.709,210.000 197.957 C 210.000 196.306,209.586 195.774,208.864 196.496 M281.814 196.377 C 281.341 197.143,282.180 198.147,282.735 197.478 C 283.106 197.031,283.085 196.803,282.641 196.434 C 282.255 196.114,281.988 196.096,281.814 196.377 M292.243 197.618 C 291.936 199.538,292.223 200.245,293.036 199.570 C 293.757 198.972,293.767 197.036,293.052 196.443 C 292.608 196.075,292.455 196.297,292.243 197.618 M156.830 198.564 C 156.325 199.172,156.583 200.800,157.184 200.800 C 157.680 200.800,158.098 198.738,157.685 198.325 C 157.473 198.113,157.123 198.211,156.830 198.564 M90.320 199.280 C 90.693 199.653,90.907 199.653,91.280 199.280 C 91.653 198.907,91.547 198.800,90.800 198.800 C 90.053 198.800,89.947 198.907,90.320 199.280 M92.265 200.574 C 91.964 201.360,92.845 201.600,96.033 201.600 C 98.533 201.600,98.800 201.677,98.800 202.400 C 98.800 202.840,98.949 203.200,99.131 203.200 C 99.313 203.200,99.382 202.660,99.285 202.000 C 99.110 200.809,99.090 200.800,96.528 200.800 C 95.109 200.800,93.617 200.623,93.214 200.407 C 92.676 200.120,92.422 200.164,92.265 200.574 M229.873 200.554 C 229.742 200.895,229.795 201.273,229.990 201.394 C 230.500 201.709,230.804 201.054,230.429 200.447 C 230.181 200.046,230.059 200.069,229.873 200.554 M313.200 200.800 C 313.200 201.240,313.380 201.600,313.600 201.600 C 313.820 201.600,314.000 201.240,314.000 200.800 C 314.000 200.360,313.820 200.000,313.600 200.000 C 313.380 200.000,313.200 200.360,313.200 200.800 M135.547 200.883 C 135.078 202.474,135.428 207.800,136.000 207.800 C 136.350 207.800,136.522 207.550,136.413 207.200 C 136.310 206.870,136.220 205.310,136.213 203.733 C 136.201 201.042,135.890 199.715,135.547 200.883 M70.939 201.254 C 71.468 201.561,71.802 201.558,72.119 201.241 C 72.440 200.920,72.241 200.803,71.380 200.812 C 70.346 200.823,70.291 200.877,70.939 201.254 M145.190 201.900 C 143.653 203.847,144.583 207.600,146.602 207.600 C 147.638 207.600,147.986 206.718,147.995 204.074 C 148.005 200.872,146.761 199.909,145.190 201.900 M166.070 201.148 C 165.400 201.573,165.019 204.307,165.369 206.175 C 165.700 207.938,167.714 208.319,168.148 206.700 C 169.018 203.453,167.755 200.080,166.070 201.148 M177.606 201.900 C 177.611 202.757,177.698 202.868,178.000 202.400 C 178.506 201.617,178.506 200.800,178.000 200.800 C 177.780 200.800,177.603 201.295,177.606 201.900 M186.790 201.900 C 186.111 202.761,185.963 203.369,186.112 204.700 C 186.581 208.896,190.000 208.457,190.000 204.200 C 190.000 201.120,188.343 199.932,186.790 201.900 M82.001 203.824 C 81.999 206.792,81.633 206.972,75.132 207.206 L 69.400 207.412 75.200 207.717 C 78.390 207.885,81.540 208.011,82.200 207.997 C 82.860 207.983,84.728 207.933,86.351 207.886 C 89.018 207.808,89.360 207.887,89.900 208.700 C 90.609 209.768,92.639 209.999,92.243 208.967 C 92.109 208.619,92.000 208.079,92.000 207.767 C 92.000 207.358,91.472 207.199,90.100 207.198 C 87.409 207.195,85.294 206.527,84.996 205.588 C 84.859 205.154,84.486 204.800,84.167 204.800 C 83.849 204.800,83.232 204.215,82.796 203.500 L 82.003 202.200 82.001 203.824 M231.692 203.275 C 231.939 204.017,232.800 204.140,232.800 203.433 C 232.800 203.085,232.515 202.800,232.167 202.800 C 231.818 202.800,231.605 203.014,231.692 203.275 M314.887 203.262 C 315.095 203.885,315.990 203.994,316.021 203.400 C 316.033 203.180,315.742 202.938,315.375 202.862 C 314.958 202.775,314.775 202.925,314.887 203.262 M240.100 205.065 C 239.599 205.267,239.374 207.600,239.856 207.600 C 240.303 207.600,241.174 206.227,241.187 205.500 C 241.200 204.788,240.992 204.705,240.100 205.065 M323.227 205.549 C 322.394 207.105,322.924 208.303,323.913 207.100 C 324.537 206.340,324.659 205.104,324.127 204.917 C 323.867 204.826,323.462 205.110,323.227 205.549 M177.627 206.780 C 177.606 207.832,177.711 208.049,178.067 207.693 C 178.412 207.348,178.419 206.988,178.094 206.313 C 177.681 205.456,177.652 205.484,177.627 206.780 M156.563 207.804 C 156.271 208.969,156.824 210.348,157.444 210.000 C 157.917 209.734,157.782 207.622,157.258 207.098 C 156.973 206.813,156.757 207.032,156.563 207.804 M271.464 208.977 C 271.187 209.701,271.918 210.242,272.452 209.708 C 272.695 209.465,272.626 209.154,272.264 208.853 C 271.816 208.481,271.644 208.508,271.464 208.977 M281.501 210.335 C 281.283 211.170,281.830 212.400,282.420 212.400 C 283.004 212.400,282.870 210.556,282.249 210.041 C 281.818 209.683,281.655 209.747,281.501 210.335 M158.628 211.155 C 158.507 211.350,158.661 211.718,158.969 211.974 C 159.592 212.492,160.231 211.897,159.800 211.200 C 159.494 210.705,158.920 210.683,158.628 211.155 M167.388 213.220 C 167.007 213.835,167.528 214.232,168.042 213.718 C 168.329 213.431,168.336 213.207,168.062 213.039 C 167.839 212.900,167.535 212.982,167.388 213.220 " stroke="none" fill="#fcfcfb" fill-rule="evenodd"></path><path id="path3" d="M39.289 189.823 C 36.742 191.607,38.491 194.062,42.533 194.377 L 45.400 194.600 45.504 203.400 C 45.623 213.411,45.549 213.200,48.903 213.200 C 50.975 213.200,52.400 212.673,52.400 211.906 C 52.400 211.559,52.277 211.563,51.920 211.920 C 51.297 212.543,47.503 212.543,46.880 211.920 C 46.537 211.577,46.400 209.031,46.400 203.000 C 46.400 193.311,46.505 193.600,43.000 193.600 C 40.394 193.600,39.600 193.172,39.600 191.769 C 39.600 190.063,40.209 189.965,49.967 190.085 C 57.444 190.178,59.085 190.104,58.532 189.700 C 57.423 188.890,40.466 188.999,39.289 189.823 M127.224 189.956 C 126.393 191.508,126.669 211.757,127.531 212.538 C 128.586 213.492,133.200 213.401,133.200 212.426 C 133.200 212.268,132.661 212.218,132.003 212.314 C 131.344 212.411,130.174 212.372,129.403 212.227 L 128.000 211.964 128.000 201.189 L 128.000 190.415 128.900 190.234 C 131.511 189.708,132.327 189.685,132.792 190.122 C 133.191 190.497,133.261 190.471,133.118 190.000 C 132.807 188.975,127.769 188.937,127.224 189.956 M217.961 190.820 C 216.618 192.419,215.767 193.317,214.200 194.790 C 213.760 195.203,212.863 195.599,212.207 195.671 C 210.747 195.829,210.031 197.386,210.630 199.100 C 211.106 200.463,213.138 200.847,214.034 199.744 C 214.405 199.286,214.427 199.151,214.096 199.349 C 213.132 199.929,212.000 199.212,212.000 198.022 C 212.000 197.173,212.270 196.784,213.100 196.437 C 214.459 195.869,218.536 192.136,219.188 190.862 C 219.602 190.054,219.911 189.944,221.434 190.065 C 223.201 190.206,223.758 189.900,222.567 189.443 C 220.782 188.758,219.329 189.192,217.961 190.820 M234.920 189.605 C 234.437 189.800,233.672 190.328,233.220 190.780 C 232.769 191.231,232.227 191.600,232.016 191.600 C 230.894 191.600,229.989 196.792,230.652 199.431 C 231.007 200.844,231.473 202.000,231.688 202.000 C 231.903 202.000,232.580 202.536,233.191 203.191 C 234.554 204.649,238.062 205.270,239.373 204.285 C 240.077 203.756,239.968 203.720,238.173 203.891 C 236.457 204.054,236.010 203.930,234.742 202.939 C 233.940 202.313,232.989 201.620,232.629 201.400 C 230.410 200.046,231.257 194.390,234.052 191.895 L 236.200 189.978 240.067 190.089 C 243.126 190.177,243.848 190.095,243.519 189.700 C 243.031 189.115,236.321 189.041,234.920 189.605 M255.793 189.578 C 250.972 191.534,249.997 198.400,254.541 198.400 C 257.194 198.400,257.532 197.811,255.000 197.600 L 252.600 197.400 252.708 196.050 C 253.025 192.097,255.970 190.043,261.400 189.988 C 264.244 189.959,265.517 189.822,265.000 189.600 C 263.980 189.162,256.861 189.145,255.793 189.578 M301.428 190.547 C 300.643 191.288,300.000 192.036,300.000 192.209 C 300.000 192.868,296.627 195.600,295.813 195.600 C 294.576 195.600,294.000 196.362,294.000 198.000 C 294.000 199.766,294.587 200.406,296.180 200.379 L 297.400 200.358 296.500 199.730 C 295.385 198.952,295.257 196.899,296.300 196.523 C 297.507 196.088,302.050 191.919,302.443 190.886 C 302.788 189.980,302.979 189.915,304.809 190.091 C 306.451 190.249,306.722 190.188,306.351 189.741 C 305.468 188.677,302.980 189.084,301.428 190.547 M318.371 189.528 C 315.568 190.739,312.779 195.619,313.638 197.810 C 313.808 198.244,314.058 199.276,314.192 200.103 C 314.361 201.135,314.776 201.824,315.519 202.303 C 316.113 202.686,316.870 203.320,317.200 203.711 C 317.997 204.655,321.534 205.067,322.513 204.329 C 323.138 203.858,323.010 203.809,321.464 203.932 C 316.033 204.364,312.363 196.555,316.300 192.945 C 317.125 192.188,318.191 191.203,318.668 190.756 C 319.439 190.034,319.964 189.958,323.369 190.072 C 326.989 190.193,328.003 189.994,326.567 189.443 C 325.719 189.117,319.164 189.185,318.371 189.528 M338.987 189.580 C 337.813 190.056,335.200 193.072,335.200 193.951 C 335.200 194.363,335.093 195.233,334.963 195.885 C 334.545 197.977,337.873 199.375,340.000 198.000 C 340.426 197.725,339.933 197.610,338.300 197.606 L 336.000 197.600 336.000 196.054 C 336.000 194.735,336.313 194.178,338.132 192.254 L 340.263 190.000 344.632 189.994 C 347.600 189.990,348.808 189.863,348.400 189.600 C 347.676 189.132,340.132 189.116,338.987 189.580 M108.000 190.604 C 107.450 190.897,106.280 191.285,105.400 191.468 C 103.917 191.776,103.791 191.908,103.678 193.270 C 103.584 194.398,103.236 194.983,102.178 195.790 C 100.298 197.223,100.289 198.770,102.152 200.191 L 103.504 201.222 103.670 206.218 C 103.879 212.470,104.075 212.753,108.437 213.063 C 110.594 213.217,111.596 213.126,112.119 212.728 C 112.744 212.255,112.453 212.201,109.919 212.319 L 107.000 212.456 105.801 210.928 C 104.658 209.472,104.595 209.189,104.458 204.918 C 104.324 200.709,104.257 200.398,103.357 199.809 C 102.041 198.946,102.052 197.046,103.379 196.177 C 104.111 195.697,104.388 195.117,104.479 193.868 C 104.584 192.424,104.734 192.185,105.600 192.088 C 107.675 191.856,108.389 191.567,108.803 190.795 C 109.037 190.358,109.177 190.016,109.114 190.037 C 109.051 190.057,108.550 190.312,108.000 190.604 M110.120 192.800 C 110.120 194.010,110.195 194.505,110.287 193.900 C 110.378 193.295,110.378 192.305,110.287 191.700 C 110.195 191.095,110.120 191.590,110.120 192.800 M56.300 193.496 C 55.035 193.575,54.000 193.811,54.000 194.020 C 54.000 194.625,57.368 194.460,58.224 193.813 C 58.651 193.490,58.910 193.254,58.800 193.288 C 58.690 193.323,57.565 193.416,56.300 193.496 M237.857 193.907 C 237.753 194.076,238.337 194.151,239.156 194.073 C 241.067 193.891,241.735 194.668,241.699 197.033 C 241.662 199.481,241.045 200.138,239.037 199.869 C 237.989 199.728,237.640 199.781,238.021 200.021 C 241.097 201.967,244.832 197.890,242.624 194.996 C 241.581 193.628,238.469 192.917,237.857 193.907 M260.270 193.887 C 262.799 194.204,263.561 199.051,261.200 199.800 C 260.783 199.933,260.334 200.377,260.204 200.787 C 260.074 201.197,259.447 201.715,258.811 201.936 C 257.084 202.538,252.250 207.613,251.652 209.452 C 251.375 210.303,251.058 211.214,250.948 211.477 C 250.282 213.068,266.484 214.196,268.532 212.700 C 269.088 212.294,267.653 212.200,260.908 212.200 L 252.600 212.200 252.693 210.656 C 252.772 209.349,253.201 208.683,255.493 206.309 C 256.982 204.767,258.438 203.256,258.729 202.952 C 259.019 202.649,259.389 202.400,259.550 202.400 C 260.141 202.400,262.698 199.762,263.372 198.457 C 264.678 195.926,263.328 193.559,260.638 193.664 C 259.209 193.720,259.162 193.748,260.270 193.887 M322.899 193.891 C 324.765 194.087,325.363 195.075,325.089 197.508 C 324.857 199.568,324.312 200.076,322.528 199.896 C 321.828 199.825,321.344 199.910,321.452 200.084 C 322.666 202.049,327.806 198.326,326.740 196.254 C 325.739 194.309,324.719 193.598,323.030 193.667 L 321.400 193.734 322.899 193.891 M341.968 194.300 C 341.518 194.896,341.522 194.925,341.999 194.500 C 343.082 193.535,345.173 193.877,345.636 195.096 C 346.531 197.450,344.830 200.526,341.749 202.125 C 340.318 202.868,335.201 208.129,335.198 208.861 C 335.196 209.157,334.939 209.892,334.625 210.493 C 334.092 211.515,334.121 211.637,335.081 212.393 C 336.342 213.384,350.439 213.644,351.732 212.700 C 352.287 212.295,350.862 212.223,344.260 212.322 C 335.436 212.455,335.470 212.463,335.883 210.299 C 336.077 209.286,342.236 202.400,342.948 202.400 C 343.519 202.400,346.218 199.489,346.860 198.181 C 348.372 195.098,343.993 191.624,341.968 194.300 M110.600 195.479 C 111.360 196.180,113.494 196.949,112.800 196.271 C 112.470 195.949,111.750 195.556,111.200 195.398 C 110.582 195.220,110.353 195.251,110.600 195.479 M66.323 196.300 C 66.035 196.685,65.136 197.307,64.324 197.682 C 60.631 199.389,61.076 208.459,65.000 211.467 L 67.000 213.000 71.480 213.000 C 73.945 213.000,76.141 212.820,76.362 212.600 C 76.629 212.333,75.270 212.240,72.282 212.319 L 67.800 212.438 65.523 210.207 C 61.902 206.660,61.973 199.351,65.640 198.187 C 66.070 198.051,66.720 197.483,67.085 196.926 C 67.734 195.936,67.840 195.917,71.644 196.069 C 73.787 196.155,75.453 196.085,75.346 195.913 C 74.914 195.213,66.877 195.558,66.323 196.300 M85.283 196.488 C 84.798 196.990,84.041 197.715,83.601 198.100 C 80.676 200.656,84.190 206.400,88.678 206.400 C 91.327 206.400,92.603 207.059,92.893 208.577 C 93.099 209.651,90.970 210.799,89.946 210.167 C 89.652 209.985,89.583 210.049,89.762 210.338 C 90.138 210.946,92.907 210.933,93.520 210.320 C 95.457 208.383,93.538 206.136,89.774 205.934 C 84.237 205.637,81.892 201.283,85.386 197.787 L 86.971 196.200 90.899 196.062 C 93.768 195.961,95.002 196.069,95.478 196.462 C 96.032 196.919,96.100 196.910,95.932 196.400 C 95.557 195.262,86.395 195.338,85.283 196.488 M141.523 196.337 C 141.235 196.742,140.471 197.248,139.824 197.462 C 135.934 198.747,135.668 209.381,139.490 210.834 C 140.067 211.054,140.965 211.693,141.486 212.255 C 142.492 213.341,149.353 213.608,150.362 212.600 C 150.628 212.333,149.371 212.245,146.589 212.336 C 142.431 212.472,142.414 212.469,141.944 211.436 C 141.684 210.866,141.317 210.400,141.129 210.400 C 138.035 210.400,136.748 202.368,139.382 199.500 C 140.139 198.675,140.919 198.000,141.115 198.000 C 141.311 198.000,141.684 197.533,141.944 196.963 C 142.413 195.933,142.447 195.927,146.371 196.063 C 148.545 196.138,150.241 196.065,150.139 195.900 C 149.695 195.184,142.066 195.570,141.523 196.337 M159.963 197.171 C 159.143 198.028,158.284 199.492,157.964 200.576 C 157.655 201.622,157.087 202.646,156.701 202.853 C 155.732 203.372,155.780 205.217,156.769 205.476 C 157.305 205.616,157.685 206.288,158.022 207.693 C 158.984 211.703,163.676 214.562,166.191 212.672 C 166.918 212.125,166.830 212.095,165.086 212.291 C 160.671 212.789,156.644 204.956,158.987 200.426 C 160.631 197.246,164.337 195.299,166.526 196.465 C 167.316 196.886,167.347 196.867,166.851 196.265 C 165.707 194.879,161.642 195.413,159.963 197.171 M169.723 196.069 C 168.532 196.657,168.278 197.506,169.154 197.975 C 169.732 198.285,170.053 198.125,170.751 197.181 C 171.702 195.894,173.758 195.546,174.770 196.500 C 175.198 196.904,175.265 196.884,175.118 196.400 C 174.894 195.659,171.033 195.422,169.723 196.069 M183.105 196.372 C 182.807 196.796,182.091 197.262,181.512 197.408 C 177.779 198.345,177.379 210.800,181.081 210.800 C 181.388 210.800,182.097 211.295,182.658 211.900 C 183.741 213.069,190.947 213.611,191.961 212.600 C 192.228 212.333,190.981 212.245,188.219 212.335 C 184.307 212.463,184.062 212.424,183.811 211.634 C 183.665 211.173,183.113 210.571,182.586 210.294 C 178.658 208.236,178.530 199.428,182.410 198.197 C 182.805 198.071,183.430 197.509,183.798 196.947 C 184.449 195.953,184.571 195.929,188.196 196.063 C 190.247 196.138,191.841 196.065,191.739 195.900 C 191.279 195.158,183.664 195.574,183.105 196.372 M272.305 196.266 C 271.580 196.991,272.413 198.704,274.084 199.923 C 274.478 200.210,274.800 200.706,274.800 201.025 C 274.800 201.344,275.237 201.986,275.772 202.450 L 276.744 203.295 275.481 205.705 C 274.786 207.030,273.426 208.929,272.458 209.925 C 270.838 211.592,270.754 211.777,271.403 212.252 C 272.428 213.001,275.371 213.348,276.675 212.873 C 277.700 212.500,277.611 212.460,275.687 212.432 C 273.105 212.393,272.688 211.723,274.159 209.975 C 274.732 209.295,275.200 208.586,275.200 208.400 C 275.200 208.214,275.644 207.534,276.186 206.890 C 277.606 205.202,277.943 202.686,276.851 201.921 C 276.392 201.599,275.755 200.720,275.437 199.968 C 275.118 199.216,274.471 198.275,273.998 197.878 C 272.191 196.359,276.441 195.141,278.926 196.465 C 279.716 196.886,279.747 196.867,279.251 196.265 C 278.467 195.315,273.256 195.315,272.305 196.266 M283.341 197.218 C 282.707 198.175,282.052 198.752,281.735 198.630 C 281.435 198.515,281.200 198.688,281.200 199.025 C 281.200 200.114,282.473 200.201,283.272 199.167 C 285.292 196.554,286.055 196.041,288.147 195.893 C 289.869 195.771,289.734 195.736,287.306 195.674 L 284.411 195.600 283.341 197.218 M90.600 198.032 C 91.040 198.294,91.760 198.821,92.200 199.202 C 93.272 200.130,94.926 200.482,96.067 200.025 C 96.940 199.675,96.918 199.649,95.716 199.625 C 94.994 199.611,94.117 199.265,93.716 198.835 C 93.322 198.415,92.280 197.954,91.400 197.812 C 90.047 197.594,89.923 197.628,90.600 198.032 M214.965 198.235 C 214.214 198.841,214.214 198.845,214.974 198.469 C 216.794 197.568,217.010 198.357,216.873 205.405 C 216.753 211.630,216.786 211.964,217.557 212.377 C 219.030 213.165,221.729 213.316,222.600 212.659 C 223.344 212.097,223.282 212.071,221.704 212.280 C 218.895 212.652,218.800 212.420,218.800 205.200 C 218.800 200.635,218.662 198.789,218.300 198.504 C 217.317 197.730,215.747 197.603,214.965 198.235 M298.397 198.054 C 297.880 198.419,297.886 198.448,298.436 198.275 C 300.017 197.776,300.183 198.476,300.053 205.114 C 299.910 212.386,299.979 212.568,303.036 213.026 C 304.968 213.316,306.800 212.782,306.800 211.929 C 306.800 211.549,306.693 211.547,306.320 211.920 C 306.056 212.184,305.192 212.400,304.400 212.400 C 302.086 212.400,302.000 212.132,302.000 204.907 C 302.000 200.030,301.873 198.336,301.500 198.221 C 299.923 197.735,298.925 197.681,298.397 198.054 M111.653 199.853 C 110.913 200.176,110.393 200.526,110.498 200.631 C 110.769 200.903,112.671 200.133,112.985 199.625 C 113.296 199.121,113.352 199.112,111.653 199.853 M70.200 199.885 C 68.612 200.267,68.876 200.600,70.655 200.458 C 73.778 200.210,74.145 201.526,71.093 202.024 L 69.400 202.300 71.326 202.350 C 74.737 202.439,76.122 200.805,73.300 200.021 C 71.726 199.584,71.495 199.574,70.200 199.885 M145.600 199.890 C 143.837 200.203,143.976 200.608,145.797 200.463 C 149.068 200.203,149.952 206.532,146.904 208.383 C 146.340 208.726,146.439 208.762,147.400 208.563 C 150.610 207.901,151.193 200.000,148.033 200.000 C 147.831 200.000,147.426 199.935,147.133 199.856 C 146.840 199.777,146.150 199.792,145.600 199.890 M187.200 199.893 C 185.413 200.205,185.591 200.600,187.518 200.600 C 190.558 200.600,191.516 205.321,188.988 207.849 L 188.028 208.808 189.114 208.550 C 191.196 208.056,191.600 207.341,191.600 204.147 C 191.600 200.599,190.309 199.351,187.200 199.893 M166.337 200.398 C 169.271 201.092,169.964 207.940,167.110 208.028 C 166.259 208.054,166.251 208.076,166.994 208.366 C 168.267 208.863,169.222 208.391,169.472 207.140 C 169.599 206.504,169.860 205.886,170.052 205.768 C 170.489 205.498,170.515 202.800,170.080 202.800 C 169.905 202.800,169.533 202.170,169.254 201.400 C 168.770 200.061,168.666 200.002,166.874 200.041 C 165.066 200.080,165.047 200.093,166.337 200.398 M110.081 204.251 C 110.026 206.470,110.159 207.620,110.500 207.873 C 111.235 208.418,113.200 209.217,113.200 208.971 C 113.200 208.855,112.577 208.499,111.816 208.181 L 110.432 207.603 110.298 204.301 L 110.163 201.000 110.081 204.251 M92.707 202.290 C 93.426 202.379,94.506 202.377,95.107 202.286 C 95.708 202.195,95.120 202.122,93.800 202.124 C 92.480 202.126,91.988 202.201,92.707 202.290 M241.701 202.660 C 241.392 202.788,241.294 203.236,241.445 203.836 C 241.896 205.632,241.276 207.505,240.087 207.939 L 239.000 208.337 240.200 208.367 C 241.250 208.393,241.543 208.132,242.544 206.276 C 244.054 203.476,243.674 201.846,241.701 202.660 M324.929 202.655 C 324.590 202.794,324.569 203.164,324.853 203.980 C 325.394 205.531,324.421 207.868,323.134 208.113 C 322.413 208.251,322.494 208.303,323.492 208.346 C 324.625 208.393,324.895 208.191,325.689 206.700 C 327.484 203.330,327.184 201.736,324.929 202.655 M69.460 206.300 C 69.358 206.465,70.742 206.552,72.537 206.492 C 78.417 206.298,79.082 206.141,74.324 206.070 C 71.752 206.031,69.563 206.135,69.460 206.300 M231.214 206.584 C 230.414 207.547,231.112 209.347,233.005 211.205 C 234.845 213.010,239.297 213.865,242.578 213.041 C 244.665 212.517,243.493 212.204,239.920 212.330 L 236.237 212.461 234.119 210.166 C 232.953 208.904,232.000 207.653,232.000 207.386 C 232.000 206.450,236.283 206.046,237.144 206.900 C 237.548 207.301,237.595 207.261,237.381 206.700 C 237.026 205.768,231.970 205.673,231.214 206.584 M314.476 206.649 C 313.566 208.275,316.301 212.083,318.918 212.834 C 321.953 213.704,327.200 213.117,327.200 211.906 C 327.200 211.559,327.077 211.563,326.720 211.920 C 326.425 212.215,324.997 212.398,323.020 212.395 C 319.537 212.390,319.575 212.411,315.825 208.416 C 314.449 206.951,318.607 205.482,320.262 206.848 C 320.836 207.322,320.902 207.316,320.733 206.800 C 320.423 205.856,314.994 205.725,314.476 206.649 M264.600 208.370 C 266.580 208.497,268.425 208.746,268.700 208.924 C 268.976 209.103,269.200 209.077,269.200 208.866 C 269.200 208.197,268.020 207.998,264.467 208.070 L 261.000 208.140 264.600 208.370 M348.200 208.370 C 350.180 208.497,352.070 208.748,352.400 208.930 C 352.730 209.111,352.651 208.976,352.224 208.630 C 351.634 208.152,350.622 208.017,348.024 208.070 L 344.600 208.140 348.200 208.370 M72.915 208.696 C 74.188 208.776,76.168 208.775,77.315 208.694 C 78.462 208.614,77.420 208.549,75.000 208.550 C 72.580 208.551,71.642 208.616,72.915 208.696 M82.529 208.875 C 81.515 209.366,81.771 209.757,84.555 211.966 C 86.297 213.349,93.748 213.856,95.332 212.700 C 95.891 212.292,95.135 212.225,91.226 212.333 L 86.434 212.466 85.193 211.054 C 83.575 209.210,83.626 209.044,85.890 208.763 L 87.800 208.526 85.600 208.490 C 84.390 208.470,83.008 208.644,82.529 208.875 M281.000 208.800 C 281.136 209.020,281.557 209.200,281.936 209.200 C 282.386 209.200,282.828 209.785,283.212 210.889 C 283.886 212.826,285.759 213.507,289.054 213.013 C 291.630 212.627,291.463 212.181,288.800 212.334 C 285.966 212.497,285.044 212.047,283.993 209.987 C 283.318 208.663,282.982 208.400,281.968 208.400 C 281.260 208.400,280.856 208.567,281.000 208.800 M245.100 210.229 C 243.605 211.040,243.696 211.378,245.200 210.600 C 245.860 210.259,246.400 209.894,246.400 209.790 C 246.400 209.532,246.357 209.547,245.100 210.229 M168.000 210.776 C 168.000 210.983,168.180 211.264,168.400 211.400 C 168.931 211.728,168.911 213.329,168.370 213.870 C 168.089 214.151,166.443 214.230,163.651 214.098 C 157.774 213.819,156.557 214.877,159.440 217.760 L 160.880 219.200 165.816 219.200 C 168.531 219.200,170.837 219.065,170.939 218.900 C 171.041 218.735,168.918 218.659,166.221 218.731 L 161.316 218.863 160.370 217.331 C 158.949 215.033,158.972 215.018,164.198 214.800 L 168.996 214.600 169.693 213.118 C 170.076 212.303,170.282 211.358,170.152 211.018 C 169.898 210.358,168.000 210.144,168.000 210.776 " stroke="none" fill="#b46404" fill-rule="evenodd"></path><path id="path4" d="M133.642 190.149 C 133.320 190.537,133.218 193.852,133.293 201.449 L 133.400 212.200 134.400 212.200 C 135.358 212.200,136.412 208.302,135.592 207.795 C 135.462 207.714,135.408 206.063,135.473 204.124 C 135.887 191.755,135.399 188.032,133.642 190.149 M223.822 189.964 C 223.338 190.748,223.539 212.180,224.033 212.344 C 225.021 212.674,225.188 211.035,225.194 200.949 C 225.200 190.698,224.892 188.233,223.822 189.964 M244.267 189.867 C 243.785 190.348,243.988 191.110,244.667 191.370 C 245.627 191.739,246.249 190.982,245.614 190.217 C 245.059 189.548,244.683 189.450,244.267 189.867 M307.063 189.870 C 306.719 190.214,306.719 212.186,307.063 212.530 C 308.170 213.637,308.400 211.688,308.400 201.200 C 308.400 190.712,308.170 188.763,307.063 189.870 M327.680 190.080 C 327.137 190.623,327.759 191.600,328.649 191.600 C 329.350 191.600,329.364 190.634,328.670 190.058 C 328.284 189.738,328.016 189.744,327.680 190.080 M59.200 191.849 C 59.200 193.447,59.281 193.630,59.800 193.200 C 60.430 192.677,60.566 191.698,60.157 190.633 C 59.686 189.405,59.200 190.022,59.200 191.849 M246.400 192.214 C 246.400 192.552,246.652 193.227,246.960 193.714 C 248.803 196.629,248.800 206.332,246.955 208.431 C 246.317 209.158,246.213 210.400,246.791 210.400 C 247.006 210.400,247.464 209.969,247.809 209.442 C 248.155 208.915,248.789 208.392,249.219 208.279 C 249.933 208.092,250.000 207.702,250.004 203.737 C 250.007 201.352,250.117 198.745,250.249 197.945 C 250.445 196.765,250.316 196.316,249.570 195.570 C 249.001 195.001,248.828 194.591,249.115 194.495 C 249.384 194.405,249.018 193.761,248.250 192.970 C 246.778 191.454,246.400 191.300,246.400 192.214 M329.600 191.988 C 329.600 192.201,330.005 193.146,330.500 194.088 C 331.304 195.618,331.400 196.374,331.400 201.200 C 331.400 206.105,331.317 206.733,330.500 208.047 C 330.005 208.843,329.600 209.698,329.600 209.947 C 329.600 210.763,330.808 210.421,331.235 209.484 C 331.464 208.980,332.045 208.395,332.526 208.184 C 333.696 207.670,334.100 196.815,332.995 195.594 C 332.649 195.212,332.411 194.743,332.465 194.550 C 332.578 194.145,330.375 191.600,329.911 191.600 C 329.740 191.600,329.600 191.774,329.600 191.988 M269.481 193.881 C 269.376 194.056,269.163 195.497,269.006 197.083 C 268.841 198.757,268.487 200.162,268.161 200.432 C 267.852 200.688,267.606 201.191,267.614 201.549 C 267.625 202.039,267.847 201.944,268.514 201.162 C 269.001 200.591,269.715 200.012,270.100 199.875 C 271.015 199.549,271.125 194.768,270.236 194.030 C 269.925 193.772,269.586 193.705,269.481 193.881 M52.667 194.267 C 52.210 194.724,52.354 211.924,52.818 212.211 C 54.151 213.035,54.400 211.625,54.400 203.231 C 54.400 194.697,54.049 192.884,52.667 194.267 M237.777 194.306 C 235.247 196.065,236.984 200.473,239.866 199.609 L 241.000 199.269 239.745 199.234 C 237.953 199.185,237.440 194.800,239.227 194.800 C 239.652 194.800,240.000 194.620,240.000 194.400 C 240.000 193.938,238.404 193.871,237.777 194.306 M258.667 194.267 C 258.041 194.893,258.451 195.916,259.400 196.098 C 260.177 196.246,260.400 196.123,260.400 195.545 C 260.400 195.135,260.591 194.800,260.824 194.800 C 261.057 194.800,261.136 194.620,261.000 194.400 C 260.722 193.951,259.077 193.857,258.667 194.267 M320.902 194.500 C 318.823 197.126,320.113 200.272,323.025 199.678 L 324.200 199.438 323.000 199.215 C 321.368 198.912,321.110 195.098,322.706 194.871 C 323.204 194.801,323.509 194.576,323.382 194.371 C 323.048 193.830,321.364 193.917,320.902 194.500 M342.080 194.480 C 341.313 195.247,341.521 195.892,342.600 196.098 C 343.377 196.246,343.600 196.123,343.600 195.545 C 343.600 195.135,343.791 194.800,344.024 194.800 C 344.257 194.800,344.336 194.620,344.200 194.400 C 343.861 193.852,342.663 193.897,342.080 194.480 M352.286 197.038 C 352.130 199.102,351.834 200.320,351.364 200.840 C 350.983 201.261,350.778 201.712,350.909 201.843 C 351.266 202.199,352.000 201.631,352.000 200.998 C 352.000 200.693,352.495 200.207,353.100 199.918 C 354.920 199.049,354.843 194.000,353.009 194.000 C 352.681 194.000,352.438 195.020,352.286 197.038 M96.174 196.443 C 96.023 196.686,96.389 197.338,96.986 197.892 C 98.326 199.135,97.880 199.742,95.200 200.324 L 93.400 200.714 96.255 200.757 C 99.109 200.800,99.109 200.800,99.285 202.000 C 99.382 202.660,99.313 203.200,99.131 203.200 C 98.949 203.200,98.800 202.840,98.800 202.400 C 98.800 201.677,98.533 201.600,96.033 201.600 C 93.045 201.600,91.870 201.334,92.237 200.741 C 92.537 200.254,91.619 199.141,91.155 199.428 C 90.960 199.549,90.587 199.516,90.327 199.355 C 90.002 199.154,90.096 198.972,90.627 198.774 C 91.286 198.528,91.307 198.448,90.769 198.227 C 90.422 198.084,89.627 198.162,89.003 198.399 L 87.867 198.831 89.415 200.415 C 90.848 201.883,91.126 202.000,93.181 202.005 C 96.418 202.013,97.141 202.317,98.018 204.035 C 99.250 206.451,98.672 209.966,96.910 210.768 C 95.859 211.247,95.763 211.706,96.575 212.379 C 97.043 212.768,97.263 212.638,97.759 211.679 C 98.094 211.032,98.735 210.406,99.184 210.288 C 100.422 209.964,100.455 198.444,99.219 198.121 C 98.789 198.008,98.155 197.485,97.809 196.958 C 97.127 195.917,96.601 195.751,96.174 196.443 M113.200 198.000 C 113.200 200.032,113.458 200.382,114.320 199.520 C 115.260 198.580,114.673 196.000,113.520 196.000 C 113.344 196.000,113.200 196.900,113.200 198.000 M167.390 196.415 C 166.987 197.068,167.883 197.877,168.417 197.343 C 168.706 197.054,168.656 196.778,168.253 196.444 C 167.823 196.087,167.598 196.080,167.390 196.415 M175.467 196.267 C 175.071 196.662,175.143 214.317,175.541 214.564 C 177.266 215.629,178.507 198.661,176.851 196.662 C 176.261 195.950,175.889 195.844,175.467 196.267 M279.798 196.404 C 279.140 197.468,280.811 199.330,281.485 198.283 C 282.161 197.230,281.869 196.000,280.942 196.000 C 280.450 196.000,279.935 196.182,279.798 196.404 M291.087 196.917 C 290.978 197.201,291.118 197.746,291.397 198.129 C 291.940 198.871,292.400 198.339,292.400 196.967 C 292.400 196.258,291.356 196.218,291.087 196.917 M214.959 198.586 C 214.373 199.018,214.308 199.256,214.673 199.626 C 215.260 200.221,216.400 199.832,216.400 199.036 C 216.400 198.146,215.806 197.960,214.959 198.586 M298.206 198.546 C 297.443 199.104,297.670 200.000,298.575 200.000 C 298.865 200.000,299.306 199.754,299.556 199.453 C 300.270 198.593,299.161 197.848,298.206 198.546 M288.271 199.922 C 287.902 200.330,287.600 200.846,287.600 201.070 C 287.600 201.293,287.240 201.802,286.800 202.200 C 285.880 203.033,285.742 204.888,286.551 205.559 C 287.136 206.045,287.583 205.119,287.595 203.395 C 287.598 202.947,287.999 202.414,288.500 202.195 C 289.441 201.782,289.930 200.170,289.304 199.544 C 289.087 199.327,288.672 199.478,288.271 199.922 M79.824 202.760 C 80.169 206.266,79.959 206.400,74.103 206.400 C 71.054 206.400,69.529 206.564,69.004 206.947 C 67.667 207.925,69.484 208.400,74.566 208.400 C 79.159 208.400,79.186 208.406,79.436 209.400 C 79.753 210.664,80.525 210.679,81.339 209.437 C 82.233 208.072,81.698 207.921,75.000 207.643 L 69.400 207.412 75.132 207.206 C 81.994 206.959,82.193 206.836,81.868 203.044 C 81.673 200.778,81.226 200.020,80.076 200.006 C 79.668 200.001,79.612 200.611,79.824 202.760 M154.850 202.700 C 154.897 204.185,154.796 206.050,154.624 206.845 C 154.337 208.181,154.390 208.305,155.328 208.484 C 156.588 208.725,157.099 207.287,156.375 205.540 C 156.021 204.686,156.016 203.961,156.352 202.624 C 156.972 200.163,156.937 200.000,155.782 200.000 C 154.784 200.000,154.766 200.052,154.850 202.700 M196.611 200.382 C 196.468 200.613,196.474 201.619,196.623 202.616 C 196.787 203.709,196.695 205.145,196.393 206.227 C 195.844 208.185,196.071 208.803,197.099 208.155 C 197.942 207.623,198.169 201.038,197.367 200.372 C 197.027 200.090,196.790 200.093,196.611 200.382 M68.992 200.814 C 68.519 201.578,69.411 202.061,71.047 201.927 C 72.104 201.841,72.600 201.608,72.600 201.200 C 72.600 200.460,69.421 200.119,68.992 200.814 M144.051 200.938 C 141.903 203.526,143.557 208.838,146.292 208.134 L 147.400 207.850 146.403 207.607 C 144.419 207.126,143.747 203.738,145.255 201.822 C 145.813 201.112,146.368 200.803,146.855 200.930 C 147.265 201.038,147.500 200.962,147.377 200.763 C 147.031 200.203,144.553 200.334,144.051 200.938 M164.465 201.100 C 162.745 204.418,164.355 209.399,166.705 208.029 C 167.325 207.668,167.305 207.623,166.518 207.612 C 165.129 207.593,164.625 201.725,165.974 201.275 C 166.702 201.033,166.441 200.400,165.614 200.400 C 165.182 200.400,164.665 200.715,164.465 201.100 M185.337 201.888 C 184.018 205.045,185.496 208.749,187.835 208.149 L 189.000 207.850 188.003 207.607 C 185.306 206.952,185.409 201.900,188.143 200.797 C 188.854 200.510,188.741 200.446,187.480 200.425 C 186.094 200.402,185.904 200.532,185.337 201.888 M72.119 201.241 C 71.802 201.558,71.468 201.561,70.939 201.254 C 70.291 200.877,70.346 200.823,71.380 200.812 C 72.241 200.803,72.440 200.920,72.119 201.241 M240.478 203.282 C 239.725 204.035,239.908 205.029,240.800 205.029 C 241.621 205.029,241.845 204.206,241.272 203.302 C 241.027 202.916,240.848 202.912,240.478 203.282 M323.664 203.296 C 322.923 204.037,323.116 205.029,324.000 205.029 C 324.560 205.029,324.800 204.762,324.800 204.138 C 324.800 203.050,324.289 202.671,323.664 203.296 M262.978 205.235 C 262.831 205.474,262.894 205.854,263.120 206.080 C 263.625 206.585,264.400 206.158,264.400 205.376 C 264.400 204.703,263.371 204.600,262.978 205.235 M346.400 205.600 C 346.400 206.507,346.815 206.625,347.520 205.920 C 348.225 205.215,348.107 204.800,347.200 204.800 C 346.667 204.800,346.400 205.067,346.400 205.600 M85.848 206.531 C 86.754 207.038,91.994 207.369,91.200 206.869 C 90.870 206.661,89.382 206.417,87.894 206.326 C 86.107 206.217,85.412 206.287,85.848 206.531 M237.789 206.818 C 237.422 207.412,238.348 208.395,239.029 208.133 C 239.906 207.797,239.740 206.400,238.824 206.400 C 238.397 206.400,237.931 206.588,237.789 206.818 M261.300 206.665 C 260.529 206.976,260.708 208.000,261.533 208.000 C 262.477 208.000,262.799 207.664,262.530 206.961 C 262.305 206.374,262.126 206.331,261.300 206.665 M287.600 206.911 C 287.600 207.192,288.095 207.903,288.700 208.492 C 290.260 210.010,291.020 210.955,291.329 211.759 C 291.498 212.200,291.926 212.409,292.494 212.328 C 293.628 212.166,293.906 210.951,292.883 210.626 C 292.464 210.493,291.918 209.938,291.669 209.392 C 291.421 208.847,290.939 208.400,290.599 208.400 C 290.259 208.400,289.809 207.950,289.600 207.400 C 289.204 206.357,287.600 205.965,287.600 206.911 M320.976 206.838 C 320.827 207.079,320.979 207.551,321.314 207.886 C 322.043 208.615,322.800 208.253,322.800 207.176 C 322.800 206.327,321.447 206.076,320.976 206.838 M344.404 206.995 C 344.003 207.479,344.036 207.639,344.582 207.848 C 345.370 208.151,346.210 207.464,345.822 206.835 C 345.452 206.238,344.989 206.290,344.404 206.995 M83.400 207.975 C 82.805 208.249,83.229 208.351,85.051 208.372 C 86.786 208.392,87.658 208.587,88.035 209.042 C 88.824 209.993,90.348 210.472,91.132 210.014 C 91.738 209.661,91.739 209.623,91.149 209.612 C 90.791 209.605,90.247 209.223,89.941 208.761 C 89.314 207.817,84.896 207.286,83.400 207.975 M113.135 210.235 C 112.977 212.220,113.302 212.745,114.218 211.985 C 114.922 211.401,114.983 209.543,114.320 208.880 C 113.511 208.071,113.286 208.327,113.135 210.235 M269.467 208.667 C 269.080 209.053,269.151 211.703,269.566 212.358 C 269.975 213.004,271.309 210.853,271.463 209.300 C 271.551 208.412,270.162 207.971,269.467 208.667 M352.735 210.235 C 352.577 212.220,352.902 212.745,353.818 211.985 C 354.522 211.401,354.583 209.543,353.920 208.880 C 353.111 208.071,352.886 208.327,352.735 210.235 M279.880 209.053 C 279.294 209.639,279.639 210.314,280.621 210.502 C 281.480 210.666,281.623 210.563,281.521 209.853 C 281.400 209.008,280.409 208.525,279.880 209.053 M76.962 211.261 C 76.530 211.961,78.002 212.897,78.667 212.344 C 78.960 212.101,79.200 211.654,79.200 211.351 C 79.200 210.680,77.367 210.606,76.962 211.261 M167.238 211.354 C 166.679 212.027,167.031 213.067,167.817 213.067 C 168.157 213.067,168.400 212.687,168.400 212.157 C 168.400 211.024,167.836 210.634,167.238 211.354 M244.004 211.395 C 243.604 211.877,243.633 212.038,244.155 212.238 C 245.043 212.579,246.000 212.151,246.000 211.413 C 246.000 210.628,244.650 210.617,244.004 211.395 M327.329 211.440 C 327.194 211.793,327.329 212.232,327.628 212.417 C 328.260 212.808,329.200 212.170,329.200 211.351 C 329.200 210.583,327.629 210.658,327.329 211.440 M150.984 211.627 C 150.839 211.861,150.816 212.149,150.933 212.267 C 151.220 212.553,152.000 212.048,152.000 211.576 C 152.000 211.065,151.309 211.099,150.984 211.627 M192.584 211.627 C 192.439 211.861,192.416 212.149,192.533 212.267 C 192.820 212.553,193.600 212.048,193.600 211.576 C 193.600 211.065,192.909 211.099,192.584 211.627 " stroke="none" fill="#aaf2fc" fill-rule="evenodd"></path></g></svg>